<?xml version="1.0" encoding="UTF-8" standalone="no"?>
<!DOCTYPE svg PUBLIC "-//W3C//DTD SVG 1.1//EN"
"http://www.w3.org/Graphics/SVG/1.1/DTD/svg11.dtd">


<!-- Page 1 -->
<svg x="0" y="0" width="627" height="169" viewBox="0 0 627 169" version="1.1" xmlns="http://www.w3.org/2000/svg" xmlns:xlink="http://www.w3.org/1999/xlink"
style="display: block;margin-left: auto;margin-right: auto;">
<defs>

<style type="text/css"><![CDATA[
text { white-space: pre; }
path, image { pointer-events: none; }

.s1_1{
font-size: 15.22px;
font-family: CMMI10_7;
fill: #000000;
}
.s2_1{
font-size: 10.65px;
font-family: CMR7_8;
fill: #000000;
}
.s3_1{
font-size: 15.22px;
font-family: CMR10_9;
fill: #000000;
}

.g0_1{
fill: none;
stroke: #000000;
stroke-width: 0.6088194;
stroke-linecap: butt;
stroke-linejoin: miter;
}
.g1_1{
fill: none;
stroke: #000000;
stroke-width: 0.48704025;
stroke-linecap: round;
stroke-linejoin: round;
}
.g2_1{
fill: none;
stroke: #000000;
stroke-width: 2.130914;
stroke-linecap: butt;
stroke-linejoin: miter;
}
.g3_1{
fill: none;
stroke: #FFFFFF;
stroke-width: 0.9132446;
stroke-linecap: butt;
stroke-linejoin: miter;
}
.g4_1{
fill: none;
stroke: #000000;
stroke-width: 0.3443862;
stroke-linecap: round;
stroke-linejoin: round;
}
.g5_1{
fill: none;
stroke: #000000;
stroke-width: 0.42312598;
stroke-linecap: round;
stroke-linejoin: round;
}

]]></style>

</defs>
<path d="M0,0
L0,169
L627,169
L627,0 Z " 
fill="#FFFFFF"
fill-opacity="0"
stroke="none" />
<path d="M99.9,77.9c0,-10.5,-8.5,-19,-19,-19c-10.6,0,-19.1,8.5,-19.1,19C61.8,88.4,70.3,97,80.9,97c10.5,0,19,-8.6,19,-19.1Z" class="g0_1" />
<text x="74" y="79" class="s1_1">q</text>
<text x="80" y="82" class="s2_1">0</text>
<path d="M41.9,77.9H60.1" class="g0_1" />
<path d="M58.2,75.5c.2,.9,1.9,2.3,2.3,2.4c-.4,.2,-2.1,1.6,-2.3,2.5" class="g1_1" />
<text x="5" y="82" class="s3_1">start</text>
<path d="M181.8,77.9c0,-10.5,-8.5,-19,-19,-19c-10.5,0,-19,8.5,-19,19c0,10.5,8.5,19.1,19,19.1c10.5,0,19,-8.6,19,-19.1Z" class="g0_1" />
<text x="156" y="79" class="s1_1">q</text>
<text x="162" y="82" class="s2_1">1</text>
<path d="M239.8,20C239.8,9.5,231.3,.9,220.8,.9c-10.5,0,-19,8.6,-19,19.1c0,10.5,8.5,19,19,19c10.5,0,19,-8.5,19,-19Z" class="g0_1" />
<text x="213" y="21" class="s1_1">q</text>
<text x="220" y="24" class="s2_1">2</text>
<path d="M239.8,135.9c0,-10.5,-8.5,-19,-19,-19c-10.5,0,-19,8.5,-19,19c0,10.5,8.5,19,19,19c10.5,0,19,-8.5,19,-19Z" class="g0_1" />
<text x="213" y="137" class="s1_1">q</text>
<text x="220" y="139" class="s2_1">4</text>
<path d="M321.8,135.9c0,-10.5,-8.5,-19,-19,-19c-10.6,0,-19.1,8.5,-19.1,19c0,10.5,8.5,19,19.1,19c10.5,0,19,-8.5,19,-19Z" class="g0_1" />
<text x="295" y="137" class="s1_1">q</text>
<text x="302" y="139" class="s2_1">5</text>
<path d="M403.7,135.9c0,-10.5,-8.5,-19,-19,-19c-10.5,0,-19,8.5,-19,19c0,10.5,8.5,19,19,19c10.5,0,19,-8.5,19,-19Z" class="g0_1" />
<text x="377" y="137" class="s1_1">q</text>
<text x="384" y="139" class="s2_1">6</text>
<path d="M485.7,135.9c0,-10.5,-8.5,-19,-19,-19c-10.5,0,-19,8.5,-19,19c0,10.5,8.5,19,19,19c10.5,0,19,-8.5,19,-19Z" class="g0_1" />
<text x="459" y="137" class="s1_1">q</text>
<text x="466" y="139" class="s2_1">7</text>
<path d="M567.7,135.9c0,-10.5,-8.5,-19,-19,-19c-10.5,0,-19.1,8.5,-19.1,19c0,10.5,8.6,19,19.1,19c10.5,0,19,-8.5,19,-19Z" class="g0_1" />
<text x="541" y="137" class="s1_1">q</text>
<text x="548" y="139" class="s2_1">8</text>
<path d="M626,77.6c0,-10.5,-8.5,-19,-19.1,-19c-10.5,0,-19,8.5,-19,19c0,10.5,8.5,19,19,19c10.6,0,19.1,-8.5,19.1,-19Z" class="g2_1" />
<path d="M626,77.6c0,-10.5,-8.5,-19,-19.1,-19c-10.5,0,-19,8.5,-19,19c0,10.5,8.5,19,19,19c10.6,0,19.1,-8.5,19.1,-19Z" class="g3_1" />
<text x="600" y="79" class="s1_1">q</text>
<text x="606" y="81" class="s2_1">9</text>
<path d="M567.7,19.3c0,-10.5,-8.5,-19,-19,-19c-10.5,0,-19.1,8.5,-19.1,19c0,10.5,8.6,19.1,19.1,19.1c10.5,0,19,-8.6,19,-19.1Z" class="g0_1" />
<text x="541" y="21" class="s1_1">q</text>
<text x="548" y="23" class="s2_1">3</text>
<path d="M100.2,77.9H142" class="g0_1" />
<path d="M140.2,75.5c.2,.9,1.8,2.3,2.3,2.4c-.5,.2,-2.1,1.6,-2.3,2.5" class="g1_1" />
<text x="118" y="72" class="s3_1">a</text>
<path d="M176.5,64.3L206.1,34.7" class="g0_1" />
<path d="M203.1,34.2c.7,.6,2.9,.4,3.3,.2c-.2,.4,-.4,2.5,.1,3.3" class="g4_1" />
<text x="180" y="43" class="s1_1">±</text>
<path d="M176.5,91.6l29.6,29.6" class="g0_1" />
<path d="M206.5,118.2c-.5,.7,-.3,2.9,-.1,3.3c-.4,-.2,-2.6,-.4,-3.3,.1" class="g4_1" />
<text x="197" y="101" class="s1_1">±</text>
<path d="M240.1,135.9H282" class="g0_1" />
<path d="M280.1,133.5c.2,.9,1.9,2.2,2.3,2.4c-.4,.1,-2.1,1.5,-2.3,2.4" class="g1_1" />
<text x="257" y="130" class="s3_1">b</text>
<path d="M322.1,135.9h41.8" class="g0_1" />
<path d="M362.1,133.5c.2,.9,1.8,2.2,2.3,2.4c-.5,.1,-2.1,1.5,-2.3,2.4" class="g1_1" />
<text x="340" y="130" class="s1_1">±</text>
<path d="M404.1,135.9h41.8" class="g0_1" />
<path d="M444.1,133.5c.1,.9,1.8,2.2,2.3,2.4c-.5,.1,-2.2,1.5,-2.3,2.4" class="g1_1" />
<text x="421" y="130" class="s3_1">b</text>
<path d="M449.9,145.6c-16.3,9.4,-32,9.4,-47.1,.7" class="g0_1" />
<path d="M403.2,149.4c.3,-.9,-.5,-2.9,-.8,-3.3c.5,.1,2.6,-.3,3.2,-1" class="g5_1" />
<text x="422" y="164" class="s1_1">±</text>
<path d="M486,135.9h41.9" class="g0_1" />
<path d="M526,133.5c.2,.9,1.9,2.2,2.3,2.4c-.4,.1,-2.1,1.5,-2.3,2.4" class="g1_1" />
<text x="504" y="130" class="s1_1">±</text>
<path d="M319.5,126.2c71.8,-41.4,140.7,-41.4,211.1,-.7" class="g0_1" />
<path d="M530.2,122.4c-.3,.9,.5,2.9,.8,3.3c-.5,-.1,-2.6,.3,-3.2,1" class="g5_1" />
<text x="422" y="89" class="s1_1">±</text>
<path d="M562.4,122.2L591.9,92.6" class="g0_1" />
<path d="M588.9,92.2c.8,.5,2.9,.3,3.3,.1c-.2,.4,-.4,2.6,.1,3.4" class="g4_1" />
<text x="566" y="101" class="s1_1">±</text>
<path d="M562.4,33.1l29.5,29.5" class="g0_1" />
<path d="M592.3,59.6c-.5,.7,-.3,2.9,-.1,3.3c-.4,-.2,-2.5,-.4,-3.3,.1" class="g4_1" />
<text x="583" y="42" class="s1_1">±</text>
<path d="M240.1,19.9l287.8,-.5" class="g0_1" />
<path d="M526,16.9c.2,1,1.9,2.3,2.3,2.5c-.4,.1,-2.1,1.5,-2.3,2.4" class="g1_1" />
<text x="380" y="14" class="s3_1">a</text>


<!-- Any embedded fonts defined here -->
<style type="text/css" ><![CDATA[

@font-face {
	font-family: CMMI10_7;
	src: url("fonts/CMMI10_7.woff") format("woff");
}

@font-face {
	font-family: CMR10_9;
	src: url("fonts/CMR10_9.woff") format("woff");
}

@font-face {
	font-family: CMR7_8;
	src: url("fonts/CMR7_8.woff") format("woff");
}

]]></style>

</svg>
